<svg xmlns="http://www.w3.org/2000/svg" width="128" height="128" fill="none" viewBox="0 0 128 128">
  <path fill="#000" d="M0 0h128v128H0z"/>
  <path fill="#fff" d="M54.005 61.095c.749.974 1.123 1.984 1.123 3.033 0 1.272-.487 2.283-1.46 3.032-.973.674-2.134 1.01-3.481 1.01-.674 0-1.386-.187-2.134-.561-.674-.45-1.385-.936-2.134-1.46a53.673 53.673 0 00-2.134-1.797c-.674-.674-1.31-1.198-1.909-1.572-.898-.225-1.61-.45-2.134-.674-.524-.3-1.385-.524-2.583-.674-2.845.375-5.428 1.498-7.749 3.37-2.32 1.796-4.342 4.08-6.064 6.85-1.647 2.695-2.958 5.69-3.931 8.984-.898 3.295-1.348 6.552-1.348 9.77 0 2.621.337 5.092 1.011 7.413a18.003 18.003 0 003.145 6.064 16.439 16.439 0 005.166 4.156c2.096.973 4.567 1.46 7.412 1.46 3.144 0 6.14-.637 8.984-1.91 2.845-1.272 4.904-3.107 6.177-5.502 1.198-1.722 2.545-2.583 4.043-2.583 1.048 0 2.059.374 3.032 1.123 1.048.673 1.572 1.684 1.572 3.032 0 1.123-.3 2.208-.898 3.257a15.385 15.385 0 01-2.246 2.807 30.826 30.826 0 01-2.92 2.359 80.836 80.836 0 01-2.92 1.797 22.715 22.715 0 01-6.963 3.256c-2.47.674-4.904 1.011-7.3 1.011-3.519 0-6.85-.561-9.995-1.684-3.144-1.198-5.915-2.883-8.31-5.054-2.321-2.171-4.193-4.867-5.616-8.086-1.422-3.219-2.133-6.925-2.133-11.118 0-7.862 1.497-14.9 4.492-21.113 3.07-6.29 7.337-11.456 12.802-15.499 1.348-1.048 2.883-1.797 4.605-2.246a18.411 18.411 0 015.39-.786c2.097 0 3.894.225 5.391.674a16.142 16.142 0 014.156 1.91 22.058 22.058 0 013.818 2.695 69.257 69.257 0 004.043 3.256zm54.355 33.692c.15-.749.225-1.086.225-1.011-.898.898-1.722 1.385-2.471 1.46h-14.6c-4.342 0-8.46-.112-12.353-.337.15 3.145.262 6.364.337 9.658.075 3.295.112 6.701.112 10.22 0 1.273-.449 2.284-1.347 3.032-.899.824-1.872 1.236-2.92 1.236-1.048 0-2.134-.337-3.257-1.011-1.048-.674-1.572-1.834-1.572-3.482 0-9.283-.3-18.418-.899-27.402a813.12 813.12 0 01-1.347-27.627c.374-1.348.936-2.358 1.684-3.032.749-.674 1.685-1.086 2.808-1.236 2.171 0 3.743 1.348 4.717 4.043.15 4.567.299 9.06.449 13.477.224 4.343.486 8.647.786 12.915 4.118.225 8.498.337 13.14.337h14.487c.749.3 1.46.861 2.134 1.685.075 0 .112-.225.112-.674v-.899c.075-1.797.112-3.893.112-6.289.075-2.47.15-5.09.225-7.861.15-2.845.299-5.728.449-8.648.225-2.994.449-5.84.674-8.535.374-1.347 1.011-2.358 1.909-3.032.973-.749 1.909-1.123 2.808-1.123 1.198 0 2.208.487 3.032 1.46.898.898 1.348 2.134 1.348 3.706-.45 6.14-.787 12.204-1.011 18.193-.15 5.99-.337 12.167-.562 18.53l-.673 12.466c-.075.974-.15 2.359-.225 4.156a30.57 30.57 0 01-.674 5.166c-.374 1.647-.973 3.107-1.797 4.38-.749 1.272-1.909 1.909-3.481 1.909-1.123 0-2.134-.412-3.032-1.236-.899-.748-1.348-1.946-1.348-3.593 0-.524.037-.899.112-1.123.3-1.348.524-3.07.674-5.166.225-2.172.412-4.268.562-6.289a95.54 95.54 0 00.449-5.503c.075-1.647.149-2.62.224-2.92zM16.053 25.977c-1.498-.15-2.696-.673-3.594-1.572-.824-.898-1.235-1.946-1.235-3.144 0-1.273.374-2.396 1.123-3.37.748-1.048 2.17-1.684 4.267-1.909H49.07c1.423.45 2.434 1.16 3.032 2.134.674.899 1.011 1.947 1.011 3.145 0 1.048-.411 2.059-1.235 3.032-.749.898-1.797 1.46-3.145 1.684h-32.68z"/>
</svg>
